<?xml version="1.0" encoding="UTF-8"?>
<svg version="1.1" xmlns="http://www.w3.org/2000/svg" width="7119" height="7119">
<path d="M0 0 C2349.27 0 4698.54 0 7119 0 C7119 2349.27 7119 4698.54 7119 7119 C4769.73 7119 2420.46 7119 0 7119 C0 4769.73 0 2420.46 0 0 Z " fill="#434343" transform="translate(0,0)"/>
<path d="M0 0 C0.66 0 1.32 0 2 0 C2.20455811 0.82048828 2.40911621 1.64097656 2.61987305 2.48632812 C10.20170926 32.62272609 18.63953768 62.99116013 30.96484375 91.57763672 C32.15132128 94.35410607 33.29467098 97.14669396 34.4375 99.94140625 C54.47737394 148.60755209 79.2536807 197.79680397 111.83203125 239.3359375 C113 241 113 241 113 243 C113.66 243 114.32 243 115 243 C115.33 244.32 115.66 245.64 116 247 C116.66 247 117.32 247 118 247 C118.33 248.32 118.66 249.64 119 251 C119.66 251 120.32 251 121 251 C121.33 252.32 121.66 253.64 122 255 C122.66 255 123.32 255 124 255 C125.2890625 256.4609375 125.2890625 256.4609375 126.625 258.375 C127.07101562 259.00148438 127.51703125 259.62796875 127.9765625 260.2734375 C129 262 129 262 129 264 C129.66 264 130.32 264 131 264 C131.66 265.65 132.32 267.3 133 269 C133.66 269 134.32 269 135 269 C135.66 270.65 136.32 272.3 137 274 C137.66 274 138.32 274 139 274 C142 277.46153846 142 277.46153846 142 280 C142.66 280 143.32 280 144 280 C147 283.46153846 147 283.46153846 147 286 C147.66 286 148.32 286 149 286 C154 291.47619048 154 291.47619048 154 294 C154.66 294 155.32 294 156 294 C156 294.66 156 295.32 156 296 C156.66 296 157.32 296 158 296 C162 300.47058824 162 300.47058824 162 303 C162.66 303 163.32 303 164 303 C164 303.66 164 304.32 164 305 C164.66 305 165.32 305 166 305 C166 305.66 166 306.32 166 307 C166.66 307 167.32 307 168 307 C169.65625 308.609375 169.65625 308.609375 171.5 310.75 C172.1084375 311.44609375 172.716875 312.1421875 173.34375 312.859375 C174.87976963 314.84460792 175.9723966 316.71872045 177 319 C177.66 319 178.32 319 179 319 C179 319.66 179 320.32 179 321 C179.66 321 180.32 321 181 321 C181 321.66 181 322.32 181 323 C181.66 323 182.32 323 183 323 C183 323.66 183 324.32 183 325 C183.66 325 184.32 325 185 325 C185 325.66 185 326.32 185 327 C185.66 327 186.32 327 187 327 C187 327.66 187 328.32 187 329 C187.66 329 188.32 329 189 329 C189 329.66 189 330.32 189 331 C189.66 331 190.32 331 191 331 C191 331.66 191 332.32 191 333 C191.66 333 192.32 333 193 333 C193 333.66 193 334.32 193 335 C193.66 335 194.32 335 195 335 C195 335.66 195 336.32 195 337 C195.66 337 196.32 337 197 337 C197 337.66 197 338.32 197 339 C197.58523438 339.25652344 198.17046875 339.51304687 198.7734375 339.77734375 C201.19234608 341.10562162 202.73198872 342.56524801 204.625 344.5625 C207.04521959 347.14015389 207.04521959 347.14015389 210 349 C210 349.66 210 350.32 210 351 C210.66 351 211.32 351 212 351 C212 351.66 212 352.32 212 353 C212.804375 353.3403125 212.804375 353.3403125 213.625 353.6875 C216.82460161 355.45570089 219.29037223 357.53670203 222 360 C222 360.66 222 361.32 222 362 C222.86625 362.4021875 222.86625 362.4021875 223.75 362.8125 C226.05550043 364.02929189 228.02056192 365.30333879 230 367 C230 367.66 230 368.32 230 369 C230.8971875 369.433125 230.8971875 369.433125 231.8125 369.875 C234 371 234 371 237 373 C237 373.66 237 374.32 237 375 C237.54914062 375.23976563 238.09828125 375.47953125 238.6640625 375.7265625 C241.55085379 377.30029822 243.86189325 379.25610608 246.375 381.375 C249.39798329 383.89617616 252.35194121 386.3438199 255.6875 388.4375 C256.8321875 389.2109375 256.8321875 389.2109375 258 390 C258 390.66 258 391.32 258 392 C258.56533447 392.26047119 259.13066895 392.52094238 259.71313477 392.78930664 C262.21611412 394.11441336 264.33817265 395.65363133 266.58984375 397.37109375 C267.89018555 398.35625977 267.89018555 398.35625977 269.21679688 399.36132812 C270.11462891 400.04646484 271.01246094 400.73160156 271.9375 401.4375 C273.7157178 402.79263786 275.49561387 404.14557689 277.27734375 405.49609375 C278.06359131 406.09607178 278.84983887 406.6960498 279.65991211 407.31420898 C282.01757894 409.07535068 282.01757894 409.07535068 284.79516602 410.59399414 C285.52276123 411.05797607 286.25035645 411.52195801 287 412 C287 412.66 287 413.32 287 414 C287.72268066 414.25668457 288.44536133 414.51336914 289.18994141 414.77783203 C292.15704509 416.06830302 294.38570143 417.60189483 296.9609375 419.5546875 C303.36639104 424.3109998 309.97460824 428.72411436 316.625 433.125 C317.79962661 433.90472585 318.97410627 434.68467311 320.1484375 435.46484375 C322.40357089 436.96274052 324.65982161 438.45890234 326.91674805 439.95410156 C330.34075066 442.22610583 333.75548278 444.51167081 337.16577148 446.80419922 C339.43804155 448.28557534 341.77919151 449.63327107 344.1484375 450.953125 C346.31296871 452.17695277 348.43581812 453.46152173 350.5625 454.75 C355.20251411 457.54806911 359.90432265 460.22979579 364.61987305 462.89746094 C368.60533504 465.1656711 372.49763911 467.54962323 376.375 470 C381.6626462 473.28242771 387.05415859 476.12729029 392.63623047 478.859375 C397.97868231 481.47422456 403.24596821 484.21207078 408.5 487 C416.08502372 491.00944203 423.69818383 494.9410124 431.39941406 498.72265625 C433.34532903 499.67844175 435.2897464 500.63727729 437.23339844 501.59765625 C505.95558671 535.53103371 578.41158353 561.67064734 903.11962891 621.77996826 C905.04395903 621.92696797 906.96811464 622.07626988 908.89208984 622.22784424 C972.36446799 627.21295358 1037.56970059 627.78014656 1101 622 C1101.98291016 621.91278687 1102.96582031 621.82557373 1103.97851562 621.73571777 C1195.8397215 613.5762209 1288.01712042 595.14252372 1442.47265625 516.80078125 C1445 515 1445 515 1446 515 C1446 1259.81 1446 2004.62 1446 2772 C1439.95600186 2768.15381937 1434.05149517 2764.37546159 1428.1875 2760.3125 C1418.54168214 2753.80009314 1408.30356725 2748.38724602 1398 2743 C1397.0006543 2742.4750293 1396.00130859 2741.95005859 1394.97167969 2741.40917969 C1368.56461222 2727.62245841 1341.20112658 2716.54648865 1313 2707 C1311.80536133 2706.59185059 1310.61072266 2706.18370117 1309.37988281 2705.76318359 C1232.25504866 2679.56772243 1150.92642818 2667.33993416 1011.08406448 2661.68214417 C1008.13619102 2661.68759487 1005.18832561 2661.68995539 1002.240448 2661.6920166 C970.07047197 2661.72700309 938.08586759 2662.51573398 906 2665 C904.18474679 2665.13543787 902.3694802 2665.27069654 900.55419922 2665.40576172 C811.86321173 2672.13152612 721.60667331 2685.70031147 377.98486328 2816.2890625 C374.86012971 2818.0801743 371.72562904 2819.85331665 368.58984375 2821.625 C355.08597285 2829.28770366 341.94912088 2837.3515032 329.03808594 2845.97412109 C326.34430909 2847.77040527 323.64408247 2849.55650696 320.9405365 2851.33804321 C296.29093584 2867.58404275 272.57189573 2884.81662562 249.75585938 2903.56005859 C248.19064408 2904.84365701 246.619183 2906.11963072 245.046875 2907.39453125 C233.57091624 2916.70616445 222.44362131 2926.35950101 211.65527344 2936.45800781 C210.01089033 2937.98985497 208.35480976 2939.50799044 206.6953125 2941.0234375 C198.42905712 2948.60600005 190.4396371 2956.45358655 182.5 2964.375 C181.72189468 2965.14922302 181.72189468 2965.14922302 180.92807007 2965.93908691 C175.63041519 2971.21585885 170.41664259 2976.51818466 165.55175781 2982.203125 C163.00031823 2985.15759249 160.30292558 2987.97316969 157.625 2990.8125 C153.0299508 2995.72805797 148.62737844 3000.73140195 144.421875 3005.98828125 C142.57980937 3008.27897899 140.71742061 3010.54176262 138.828125 3012.79296875 C130.10131022 3023.21512408 121.92674736 3033.95900806 114 3045 C113.46600586 3045.74314453 112.93201172 3046.48628906 112.38183594 3047.25195312 C86.82678169 3082.91826414 64.52711752 3120.71130819 46.12524414 3160.56494141 C45.28558189 3162.3819931 44.44006932 3164.19634349 43.59155273 3166.00927734 C25.52125039 3204.77639628 12.34028981 3245.55220757 2 3287 C1.34 3287 0.68 3287 0 3287 C0 3037.85 0 2788.7 0 2532 C-7.92 2532.99 -15.84 2533.98 -24 2535 C-29.28837891 2535.65548828 -29.28837891 2535.65548828 -34.68359375 2536.32421875 C-62.90787128 2539.87521245 -90.97026798 2544.15000062 -119 2549 C-119.94270752 2549.16242188 -120.88541504 2549.32484375 -121.85668945 2549.4921875 C-175.51625207 2558.75687919 -227.56220387 2572.56499309 -279.02441406 2590.32019043 C-280.89626925 2590.9643057 -282.77033978 2591.60197245 -284.64453125 2592.23925781 C-338.03389172 2610.42368608 -390.88589103 2634.03982015 -439.56054688 2662.57519531 C-441.95224491 2663.97210782 -444.35611547 2665.34501818 -446.765625 2666.7109375 C-466.42483217 2677.89038462 -485.49735302 2689.99884744 -504 2703 C-504.94576904 2703.66225586 -504.94576904 2703.66225586 -505.91064453 2704.33789062 C-523.83164567 2716.91301511 -541.29201256 2730.16611812 -557.9296875 2744.3984375 C-560.67734045 2746.74257701 -563.48800228 2748.99883316 -566.3125 2751.25 C-573.15850512 2756.82602156 -579.49878787 2762.93454075 -585.89746094 2769.01074219 C-587.9877319 2770.98839288 -590.08914887 2772.95335488 -592.1953125 2774.9140625 C-606.63705999 2788.28773091 -606.63705999 2788.28773091 -620 2802.71875 C-622.16891835 2805.19267249 -624.40827129 2807.58883121 -626.66064453 2809.98657227 C-632.72893349 2816.44979259 -638.46303951 2823.07193538 -644 2830 C-645.00487442 2831.22660251 -646.01150295 2832.4517693 -647.01953125 2833.67578125 C-664.93863054 2855.4679701 -681.4959984 2878.30448334 -695.66796875 2902.72119141 C-696.91379446 2904.85252153 -698.18460941 2906.96581268 -699.46875 2909.07421875 C-707.31469497 2922.02312692 -714.1851167 2935.48701473 -721 2949 C-721.74515869 2950.47412354 -721.74515869 2950.47412354 -722.50537109 2951.97802734 C-741.35024739 2989.53098686 -754.12461096 3029.5221695 -765 3070 C-765.66 3070 -766.32 3070 -767 3070 C-767 2127.85 -767 1185.7 -767 215 C-766.34 215 -765.68 215 -765 215 C-764.72119995 216.09332642 -764.72119995 216.09332642 -764.43676758 217.20874023 C-758.51025871 241.34504268 -758.51025871 241.34504268 -750.77246094 264.93432617 C-749.99502568 267.01330205 -749.27136753 269.10375301 -748.5625 271.20703125 C-740.83852993 294.05919108 -731.38868488 316.2399168 -721 338 C-720.52981445 338.98564941 -720.05962891 339.97129883 -719.57519531 340.98681641 C-709.96251426 360.98991404 -698.81896597 379.96577138 -687.125 398.8125 C-686.53098389 399.77220703 -685.93696777 400.73191406 -685.32495117 401.72070312 C-681.63034815 407.61397278 -677.6955862 413.24333927 -673.49951172 418.79174805 C-672 421 -672 421 -672 423 C-671.34 423 -670.68 423 -670 423 C-668.73828125 424.65234375 -668.73828125 424.65234375 -667.3125 426.9375 C-664.55921644 431.23398199 -661.54215169 435.19826838 -658.3203125 439.15234375 C-657 441 -657 441 -657 443 C-656.34 443 -655.68 443 -655 443 C-654.34 444.65 -653.68 446.3 -653 448 C-652.34 448 -651.68 448 -651 448 C-650.34 449.65 -649.68 451.3 -649 453 C-648.34 453 -647.68 453 -647 453 C-646.34 454.65 -645.68 456.3 -645 458 C-644.34 458 -643.68 458 -643 458 C-640 461.46153846 -640 461.46153846 -640 464 C-639.34 464 -638.68 464 -638 464 C-633 469.47619048 -633 469.47619048 -633 472 C-632.34 472 -631.68 472 -631 472 C-631 472.66 -631 473.32 -631 474 C-630.34 474 -629.68 474 -629 474 C-625 478.47058824 -625 478.47058824 -625 481 C-624.34 481 -623.68 481 -623 481 C-623 481.66 -623 482.32 -623 483 C-622.34 483 -621.68 483 -621 483 C-621 483.66 -621 484.32 -621 485 C-620.34 485 -619.68 485 -619 485 C-617.70629883 486.31274414 -617.70629883 486.31274414 -616.14453125 488.22265625 C-611.48640675 493.69918148 -606.4180819 498.73219373 -601.32788086 503.80249023 C-599.66987045 505.45507182 -598.01736024 507.11302199 -596.36523438 508.77148438 C-595.31021689 509.82584219 -594.25488986 510.87989038 -593.19921875 511.93359375 C-592.70653 512.42830673 -592.21384125 512.92301971 -591.70622253 513.432724 C-589.0997262 516.04413458 -589.0997262 516.04413458 -586 518 C-586 518.66 -586 519.32 -586 520 C-585.34 520 -584.68 520 -584 520 C-584 520.66 -584 521.32 -584 522 C-583.46375 522.226875 -582.9275 522.45375 -582.375 522.6875 C-579.17539839 524.45570089 -576.70962777 526.53670203 -574 529 C-574 529.66 -574 530.32 -574 531 C-573.4225 531.268125 -572.845 531.53625 -572.25 531.8125 C-569.94449957 533.02929189 -567.97943808 534.30333879 -566 536 C-566 536.66 -566 537.32 -566 538 C-565.401875 538.28875 -564.80375 538.5775 -564.1875 538.875 C-562 540 -562 540 -559 542 C-559 542.66 -559 543.32 -559 544 C-557.35 544.66 -555.7 545.32 -554 546 C-554 546.66 -554 547.32 -554 548 C-553.45859375 548.2475 -552.9171875 548.495 -552.359375 548.75 C-549.4717151 550.27988604 -546.90223982 552.09150997 -544.25 554 C-543.26515625 554.70125 -542.2803125 555.4025 -541.265625 556.125 C-540.51796875 556.74375 -539.7703125 557.3625 -539 558 C-539 558.66 -539 559.32 -539 560 C-538.443125 560.268125 -537.88625 560.53625 -537.3125 560.8125 C-534.78774666 562.10899496 -532.36285516 563.42476323 -530 565 C-530 565.66 -530 566.32 -530 567 C-528.68 567.33 -527.36 567.66 -526 568 C-526 568.66 -526 569.32 -526 570 C-524.68 570.33 -523.36 570.66 -522 571 C-522 571.66 -522 572.32 -522 573 C-521.27425781 573.268125 -520.54851563 573.53625 -519.80078125 573.8125 C-517.03135976 574.98670381 -514.69080566 576.3394324 -512.1875 578 C-511.39730469 578.515625 -510.60710938 579.03125 -509.79296875 579.5625 C-508.90544922 580.2740625 -508.90544922 580.2740625 -508 581 C-508 581.66 -508 582.32 -508 583 C-507.27184082 583.2678833 -506.54368164 583.5357666 -505.79345703 583.81176758 C-503.03675721 584.98436485 -500.77996144 586.33277754 -498.3046875 588.01171875 C-496.99129395 588.89633789 -496.99129395 588.89633789 -495.65136719 589.79882812 C-494.73516602 590.42208984 -493.81896484 591.04535156 -492.875 591.6875 C-490.98234107 592.96308608 -489.08911778 594.23783522 -487.1953125 595.51171875 C-486.29329102 596.11935059 -485.39126953 596.72698242 -484.46191406 597.35302734 C-480.77081232 599.82230267 -477.02747084 602.19856782 -473.265625 604.55859375 C-470.97694729 606.01466629 -468.73928382 607.53180074 -466.5 609.0625 C-462.45889703 611.77806388 -458.25875243 614.07089632 -453.96484375 616.359375 C-450.67720391 618.17862234 -447.49968062 620.13531499 -444.3125 622.125 C-440.33206446 624.60109253 -436.39357394 626.89202041 -432.1640625 628.90234375 C-429.34534945 630.33205199 -426.65880279 631.95504787 -423.9375 633.5625 C-416.03233223 638.15764875 -407.79909746 642.01093655 -399.53125 645.90234375 C-395.00660742 648.03446445 -390.51215429 650.2188629 -386.03125 652.44140625 C-354.58204145 668.0122237 -322.25545087 681.47247942 -289.19238281 693.21929932 C-286.98583237 694.00504505 -284.78178727 694.79750258 -282.578125 695.59130859 C-207.39798543 722.60494892 -129.18247875 738.37510525 -50.1875 749.25 C-48.89992294 749.42866104 -48.89992294 749.42866104 -47.58633423 749.6109314 C-31.7529837 751.7933471 -15.91219172 753.3539112 0 755 C0 505.85 0 256.7 0 0 Z " fill="#260465" transform="translate(3221,1916)"/>
<path d="M0 0 C0.66 0 1.32 0 2 0 C2.27880005 1.09332642 2.27880005 1.09332642 2.56323242 2.20874023 C8.48974129 26.34504268 8.48974129 26.34504268 16.22753906 49.93432617 C17.00497432 52.01330205 17.72863247 54.10375301 18.4375 56.20703125 C26.16147007 79.05919108 35.61131512 101.2399168 46 123 C46.47018555 123.98564941 46.94037109 124.97129883 47.42480469 125.98681641 C57.03748574 145.98991404 68.18103403 164.96577138 79.875 183.8125 C80.46901611 184.77220703 81.06303223 185.73191406 81.67504883 186.72070312 C85.36965185 192.61397278 89.3044138 198.24333927 93.50048828 203.79174805 C95 206 95 206 95 208 C95.66 208 96.32 208 97 208 C98.26171875 209.65234375 98.26171875 209.65234375 99.6875 211.9375 C102.44078356 216.23398199 105.45784831 220.19826838 108.6796875 224.15234375 C110 226 110 226 110 228 C110.66 228 111.32 228 112 228 C112.99 230.475 112.99 230.475 114 233 C114.66 233 115.32 233 116 233 C116.99 235.475 116.99 235.475 118 238 C118.66 238 119.32 238 120 238 C120.99 240.475 120.99 240.475 122 243 C122.66 243 123.32 243 124 243 C127 246.46153846 127 246.46153846 127 249 C127.66 249 128.32 249 129 249 C134 254.47619048 134 254.47619048 134 257 C134.66 257 135.32 257 136 257 C136 257.66 136 258.32 136 259 C136.66 259 137.32 259 138 259 C142 263.47058824 142 263.47058824 142 266 C142.66 266 143.32 266 144 266 C144 266.66 144 267.32 144 268 C144.66 268 145.32 268 146 268 C146 268.66 146 269.32 146 270 C146.66 270 147.32 270 148 270 C149.29370117 271.31274414 149.29370117 271.31274414 150.85546875 273.22265625 C155.51359325 278.69918148 160.5819181 283.73219373 165.67211914 288.80249023 C167.33012955 290.45507182 168.98263976 292.11302199 170.63476562 293.77148438 C171.68978311 294.82584219 172.74511014 295.87989038 173.80078125 296.93359375 C174.29347 297.42830673 174.78615875 297.92301971 175.29377747 298.432724 C177.9002738 301.04413458 177.9002738 301.04413458 181 303 C181 303.66 181 304.32 181 305 C181.66 305 182.32 305 183 305 C183 305.66 183 306.32 183 307 C183.804375 307.3403125 183.804375 307.3403125 184.625 307.6875 C187.82460161 309.45570089 190.29037223 311.53670203 193 314 C193 314.66 193 315.32 193 316 C193.5775 316.268125 194.155 316.53625 194.75 316.8125 C197.05550043 318.02929189 199.02056192 319.30333879 201 321 C201 321.66 201 322.32 201 323 C201.598125 323.28875 202.19625 323.5775 202.8125 323.875 C205 325 205 325 208 327 C208 327.66 208 328.32 208 329 C209.65 329.66 211.3 330.32 213 331 C213 331.66 213 332.32 213 333 C213.81210938 333.37125 213.81210938 333.37125 214.640625 333.75 C217.5282849 335.27988604 220.09776018 337.09150997 222.75 339 C223.73484375 339.70125 224.7196875 340.4025 225.734375 341.125 C226.48203125 341.74375 227.2296875 342.3625 228 343 C228 343.66 228 344.32 228 345 C228.556875 345.268125 229.11375 345.53625 229.6875 345.8125 C232.21225334 347.10899496 234.63714484 348.42476323 237 350 C237 350.66 237 351.32 237 352 C238.32 352.33 239.64 352.66 241 353 C241 353.66 241 354.32 241 355 C242.32 355.33 243.64 355.66 245 356 C245 356.66 245 357.32 245 358 C245.72574219 358.268125 246.45148437 358.53625 247.19921875 358.8125 C249.96864024 359.98670381 252.30919434 361.3394324 254.8125 363 C255.60269531 363.515625 256.39289062 364.03125 257.20703125 364.5625 C258.09455078 365.2740625 258.09455078 365.2740625 259 366 C259 366.66 259 367.32 259 368 C259.72815918 368.2678833 260.45631836 368.5357666 261.20654297 368.81176758 C263.96324279 369.98436485 266.22003856 371.33277754 268.6953125 373.01171875 C269.5709082 373.60146484 270.44650391 374.19121094 271.34863281 374.79882812 C272.26483398 375.42208984 273.18103516 376.04535156 274.125 376.6875 C276.01765893 377.96308608 277.91088222 379.23783522 279.8046875 380.51171875 C280.70670898 381.11935059 281.60873047 381.72698242 282.53808594 382.35302734 C286.22918768 384.82230267 289.97252916 387.19856782 293.734375 389.55859375 C296.02305271 391.01466629 298.26071618 392.53180074 300.5 394.0625 C304.54110297 396.77806388 308.74124757 399.07089632 313.03515625 401.359375 C316.32279609 403.17862234 319.50031938 405.13531499 322.6875 407.125 C326.66793554 409.60109253 330.60642606 411.89202041 334.8359375 413.90234375 C337.65465055 415.33205199 340.34119721 416.95504787 343.0625 418.5625 C350.96766777 423.15764875 359.20090254 427.01093655 367.46875 430.90234375 C371.99339258 433.03446445 376.48784571 435.2188629 380.96875 437.44140625 C412.41795855 453.0122237 444.74454913 466.47247942 477.80761719 478.21929932 C480.01416763 479.00504505 482.21821273 479.79750258 484.421875 480.59130859 C559.60201457 507.60494892 637.81752125 523.37510525 716.8125 534.25 C718.10007706 534.42866104 718.10007706 534.42866104 719.41366577 534.6109314 C735.2470163 536.7933471 751.08780828 538.3539112 767 540 C767 1126.41 767 1712.82 767 2317 C743 2320 743 2320 732.31640625 2321.32421875 C704.09212872 2324.87521245 676.02973202 2329.15000062 648 2334 C647.05729248 2334.16242188 646.11458496 2334.32484375 645.14331055 2334.4921875 C591.48374793 2343.75687919 539.43779613 2357.56499309 487.97558594 2375.32019043 C486.10373075 2375.9643057 484.22966022 2376.60197245 482.35546875 2377.23925781 C428.96610828 2395.42368608 376.11410897 2419.03982015 327.43945312 2447.57519531 C325.04775509 2448.97210782 322.64388453 2450.34501818 320.234375 2451.7109375 C300.57516783 2462.89038462 281.50264698 2474.99884744 263 2488 C262.05423096 2488.66225586 262.05423096 2488.66225586 261.08935547 2489.33789062 C243.16835433 2501.91301511 225.70798744 2515.16611812 209.0703125 2529.3984375 C206.32265955 2531.74257701 203.51199772 2533.99883316 200.6875 2536.25 C193.84149488 2541.82602156 187.50121213 2547.93454075 181.10253906 2554.01074219 C179.0122681 2555.98839288 176.91085113 2557.95335488 174.8046875 2559.9140625 C160.36294001 2573.28773091 160.36294001 2573.28773091 147 2587.71875 C144.83108165 2590.19267249 142.59172871 2592.58883121 140.33935547 2594.98657227 C134.27106651 2601.44979259 128.53696049 2608.07193538 123 2615 C121.99512558 2616.22660251 120.98849705 2617.4517693 119.98046875 2618.67578125 C102.06136946 2640.4679701 85.5040016 2663.30448334 71.33203125 2687.72119141 C70.08620554 2689.85252153 68.81539059 2691.96581268 67.53125 2694.07421875 C59.68530503 2707.02312692 52.8148833 2720.48701473 46 2734 C45.25484131 2735.47412354 45.25484131 2735.47412354 44.49462891 2736.97802734 C25.64975261 2774.53098686 12.87538904 2814.5221695 2 2855 C1.34 2855 0.68 2855 0 2855 C0 1912.85 0 970.7 0 0 Z " fill="#3A037E" transform="translate(2454,2131)"/>
<path d="M0 0 C1.65 0 3.3 0 5 0 C5 249.15 5 498.3 5 755 C5.66 755 6.32 755 7 755 C6.25 762.625 6.25 762.625 4 766 C4 513.55 4 261.1 4 1 C2.68 0.67 1.36 0.34 0 0 Z " fill="#8B61B8" transform="translate(3216,4448)"/>
<path d="M0 0 C2.56616632 3.84924948 2.55097676 6.4349304 3 11 C2.34 11 1.68 11 1 11 C1 260.15 1 509.3 1 766 C0.67 766 0.34 766 0 766 C0 513.22 0 260.44 0 0 Z " fill="#8C61B9" transform="translate(3220,1905)"/>
</svg>
